<svg fill="none" height="34" viewBox="0 0 214 34" width="214" xmlns="http://www.w3.org/2000/svg" xmlns:xlink="http://www.w3.org/1999/xlink"><clipPath id="a"><path d="m0 0h212.084v34h-212.084z"/></clipPath><g clip-path="url(#a)" fill="#074054"><path d="m17 0c-3.3623 0-6.6491.997033-9.44469 2.86502-2.79563 1.86798-4.97456 4.52302-6.26125 7.62938-1.28669415 3.1063-1.623351 6.5245-.967402 9.8221.655949 3.2977 2.275042 6.3268 4.652532 8.7043 2.3775 2.3775 5.40661 3.9966 8.70431 4.6525 3.2976.656 6.7158.3193 9.8221-.9674 3.1064-1.2866 5.7614-3.4656 7.6294-6.2612s2.865-6.0824 2.865-9.4447c0-4.5087-1.7911-8.8327-4.9792-12.02082-3.1881-3.18811-7.5121-4.97918-12.0208-4.97918zm8.7563 19.9202c.7213.7182 1.1517 1.6777 1.2085 2.694.0567 1.0164-.2642 2.0178-.9012 2.8118-.6369.794-1.5449 1.3246-2.5493 1.4897s-2.0345-.0469-2.892-.5952c-.2548-.1607-.4903-.35-.7021-.5642-.7744-.773-1.8239-1.2072-2.918-1.2072-1.0942 0-2.1437.4342-2.9181 1.2072-.7406.7548-1.7429 1.1964-2.7997 1.2337-1.0569.0373-2.08775-.3327-2.87974-1.0335s-1.28467-1.6789-1.37633-2.7325c-.09166-1.0535.2247-2.1021.88376-2.9291.10337-.1292.21536-.2541.33165-.3747.38313-.3828.68707-.8374.89444-1.3377s.31411-1.0366.31411-1.5782-.10674-1.0779-.31411-1.5782-.51131-.9549-.89444-1.3377c-.70666-.7051-1.13405-1.6423-1.20312-2.6381-.06906-.9959.22488-1.9831.82745-2.779s1.473-1.34664 2.45023-1.55035c.9773-.20371 1.9953-.0466 2.8656.44226.3291.18566.6319.41453.9002.68052.3828.38313.8374.68707 1.3377.89445.5003.20737 1.0366.3141 1.5782.3141s1.0779-.10673 1.5782-.3141c.5003-.20738.9549-.51132 1.3377-.89445.3835-.38349.8387-.68768 1.3398-.89522.501-.20755 1.0381-.31436 1.5804-.31436s1.0793.10681 1.5804.31436c.501.20754.9563.51173 1.3398.89522.3835.38348.6877.83875.8952 1.33979.2075.50108.3144 1.03808.3144 1.58038 0 .5424-.1069 1.0794-.3144 1.5804-.2075.5011-.5117.9563-.8952 1.3398-.7728.7737-1.2068 1.8224-1.2068 2.9159s.434 2.1422 1.2068 2.9159z"/><path d="m19.9202 19.9203c.3833-.3832.6873-.8381.8948-1.3388.2074-.5007.3142-1.0373.3142-1.5793 0-.5419-.1068-1.0786-.3142-1.5793-.2075-.5006-.5115-.9556-.8948-1.3387-.3828-.3838-.8377-.6883-1.3384-.896-.5007-.2078-1.0375-.3147-1.5796-.3147s-1.0789.1069-1.5796.3147c-.5007.2077-.9556.5122-1.3384.896-.3833.3831-.6873.8381-.8948 1.3387-.2074.5007-.3142 1.0374-.3142 1.5793 0 .542.1068 1.0786.3142 1.5793.2075.5007.5115.9556.8948 1.3388.3831.3832.838.6873 1.3387.8947s1.0374.3142 1.5793.3142c.542 0 1.0786-.1068 1.5793-.3142s.9556-.5115 1.3387-.8947z"/><path d="m53.076 8.21796c3.8376 0 6.5683 2.15354 7.8733 5.33644h3.8031c-.7021-2.5212-2.2118-4.74257-4.2975-6.32344-2.0858-1.58086-4.6325-2.43397-7.2497-2.4285-1.6018 0-3.188.3155-4.6678.92848-1.4799.61299-2.8246 1.51146-3.9572 2.64412-1.1327 1.13265-2.0312 2.47734-2.6441 3.95714-.613 1.4799-.9285 3.0661-.9285 4.6679s.3155 3.1879.9285 4.6678c.6129 1.4799 1.5114 2.8245 2.6441 3.9572 1.1326 1.1326 2.4773 2.0311 3.9572 2.6441 1.4798.613 3.066.9285 4.6678.9285 2.5864-.0066 5.1022-.8446 7.1759-2.3903 2.0738-1.5456 3.5958-3.717 4.3412-6.1937h-3.8764c-1.3653 3.0882-4.0357 5.1383-7.7527 5.1383-1.1418-.0039-2.2714-.2339-3.3238-.6768s-2.0065-1.0899-2.8075-1.9037c-.8009-.8137-1.4327-1.778-1.8588-2.8373-.4262-1.0593-.6383-2.1924-.624-3.3341-.0148-1.1419.1961-2.2754.6206-3.3354.4245-1.0601 1.0543-2.0259 1.8531-2.8419.7988-.8161 1.7509-1.46625 2.8017-1.91326 1.0508-.447 2.1796-.68203 3.3215-.69158z"/><path d="m75.1369 12.2838c-1.6747-.0076-3.314.4819-4.7101 1.4068-1.3962.9248-2.4865 2.2432-3.1327 3.7882s-.8192 3.2471-.4972 4.8905c.322 1.6435 1.1246 3.1543 2.306 4.3412 1.1815 1.187 2.6887 1.9965 4.3306 2.326 1.642.3296 3.3448.1643 4.8928-.4748 1.5479-.6391 2.8713-1.7233 3.8026-3.1152.9312-1.3919 1.4283-3.0289 1.4283-4.7036.0115-1.1108-.1982-2.2127-.6169-3.2417-.4186-1.0289-1.0378-1.9642-1.8215-2.7515-.7836-.7873-1.7161-1.4108-2.7431-1.8341-1.027-.4234-2.128-.6381-3.2388-.6318zm0 13.6621c-2.8298 0-4.979-2.3431-4.979-5.203s2.1535-5.2072 4.979-5.2072c.6712.0117 1.3335.1559 1.9488.4242.6154.2683 1.1717.6554 1.6371 1.1392s.8306 1.0547 1.0749 1.68c.2442.6253.3626 1.2927.3483 1.9638.0137.6708-.1051 1.3377-.3496 1.9625s-.6099 1.1952-1.0752 1.6785c-.4653.4834-1.0214.8701-1.6365 1.1381-.6151.2681-1.277.4121-1.9478.4239z"/><path d="m94.8201 12.2837c-.9688-.0225-1.9289.187-2.8003.6111s-1.6287 1.0504-2.2088 1.8267v-2.1105h-3.4456v16.2463h3.4801v-8.9286c0-2.8642 1.7917-4.6215 4.1348-4.6215 2.5842 0 3.9323 1.6927 3.9323 4.3588v9.1913h3.5144v-9.4756c-.004-4.4319-2.5108-7.098-6.6069-7.098z"/><path d="m109.008 6.85251-3.515 1.91664v3.84195h-2.765v3.1226h2.765v6.5037c0 5.0737 1.495 6.6371 6.461 6.6371h.516v-3.2862c-2.993 0-3.445-.4566-3.445-3.3811v-6.4606h3.445v-3.1355h-3.445z"/><path d="m122.67 12.2837c-1.118-.0107-2.226.2033-3.26.6291-1.033.4259-1.971 1.0549-2.756 1.8499-.786.795-1.404 1.7396-1.818 2.778-.414 1.0383-.615 2.1492-.591 3.2667 0 4.6171 3.256 8.3901 8.395 8.3901 4.164 0 6.925-2.2095 8.183-5.7887h-3.764c-.616 1.6927-2.154 2.7652-4.394 2.7652-2.86 0-4.716-1.8219-5.104-4.3286h13.503v-1.2017c0-4.8455-3.609-8.36-8.394-8.36zm-4.88 6.6372c.328-1.0413.984-1.9488 1.869-2.5874.886-.6387 1.954-.9745 3.045-.9574 2.438 0 4.23 1.2663 4.815 3.5448z"/><path d="m142.323 12.2838c-.969-.0221-1.929.1876-2.8.6117-.872.424-1.629 1.0501-2.209 1.8261v-2.1104h-3.446v16.2462h3.484v-8.9285c0-2.8642 1.788-4.6215 4.131-4.6215 2.584 0 3.936 1.6927 3.936 4.3588v9.1912h3.511v-9.4755c-.005-4.432-2.49-7.0981-6.607-7.0981z"/><path d="m156.51 6.85251-3.514 1.91664v3.84195h-2.765v3.1226h2.765v6.5037c0 5.0737 1.499 6.6371 6.46 6.6371h.521v-3.2862c-2.993 0-3.445-.4566-3.445-3.3811v-6.4606h3.445v-3.1355h-3.445z"/><path d="m174.63 8.21796c3.842 0 6.573 2.15354 7.873 5.33644h3.808c-.702-2.5212-2.212-4.74257-4.298-6.32344-2.085-1.58086-4.632-2.43397-7.249-2.4285-1.602 0-3.188.3155-4.668.92848-1.48.61299-2.825 1.51146-3.957 2.64412-1.133 1.13265-2.031 2.47734-2.644 3.95714-.613 1.4799-.929 3.0661-.929 4.6679s.316 3.1879.929 4.6678 1.511 2.8245 2.644 3.9572c1.132 1.1326 2.477 2.0311 3.957 2.6441s3.066.9285 4.668.9285c2.585-.0076 5.1-.846 7.173-2.3916 2.073-1.5455 3.594-3.7164 4.339-6.1924h-3.876c-1.37 3.0882-4.036 5.1383-7.778 5.1383-1.142-.0039-2.272-.2339-3.324-.6768-1.053-.4429-2.007-1.0899-2.808-1.9037-.801-.8137-1.432-1.778-1.859-2.8373-.426-1.0593-.638-2.1924-.624-3.3341-.014-1.144.197-2.2796.623-3.3414.427-1.0618 1.059-2.0287 1.86-2.8451.802-.81632 1.757-1.46597 2.811-1.91146 1.054-.4455 2.185-.67802 3.329-.68418z"/><path d="m201.769 14.7216c-.668-.7757-1.498-1.3959-2.431-1.8171-.933-.4211-1.947-.633-2.97-.6207-4.273 0-8.149 3.2518-8.149 8.4591 0 5.2072 3.967 8.4548 8.097 8.4548 1.042.0062 2.072-.223 3.014-.6704.941-.4475 1.769-1.1017 2.422-1.9139v2.244h3.48v-16.2463h-3.48zm-4.936 11.2888c-.69.0003-1.373-.1377-2.009-.4058-.636-.268-1.212-.6607-1.694-1.1549-.481-.4942-.859-1.0798-1.111-1.7224-.252-.6425-.372-1.329-.354-2.0189-.02-.6876.098-1.3721.347-2.0132.25-.6411.625-1.2256 1.104-1.719.48-.4934 1.053-.8856 1.687-1.1534.633-.2678 1.314-.4058 2.002-.4058s1.369.138 2.002.4058c.634.2678 1.207.66 1.687 1.1534.479.4934.854 1.0779 1.104 1.719.249.6411.367 1.3256.348 2.0132.017 2.9288-2.163 5.302-5.113 5.302z"/><path d="m212.08 5.12531h-3.48v23.74919h3.48z"/></g></svg>