<svg fill="none" height="55" viewBox="0 0 54 55" width="54" xmlns="http://www.w3.org/2000/svg" xmlns:xlink="http://www.w3.org/1999/xlink"><clipPath id="a"><path d="m0 .140076h54v54h-54z"/></clipPath><g clip-path="url(#a)" fill="#074054"><path d="m27 .140076c-5.3401 0-10.5602 1.583524-15.0004 4.550324-4.44014 2.96681-7.90077 7.1836-9.94433 12.1172-2.0435713 4.9336-2.578262 10.3624-1.53646 15.5999 1.0418 5.2375 3.6133 10.0485 7.38929 13.8245 3.776 3.776 8.587 6.3475 13.8245 7.3893 5.2374 1.0418 10.6663.5071 15.5999-1.5365 4.9336-2.0435 9.1504-5.5042 12.1172-9.9443 2.9668-4.4402 4.5503-9.6603 4.5503-15.0004 0-7.1609-2.8447-14.0284-7.9081-19.09193-5.0635-5.06346-11.931-7.908094-19.0919-7.908094zm13.907 31.637924c1.1457 1.1407 1.8293 2.6646 1.9194 4.2788s-.4197 3.2047-1.4312 4.4658c-1.0116 1.2611-2.4536 2.1037-4.0489 2.366-1.5953.2622-3.2313-.0745-4.5933-.9454-.4046-.2553-.7787-.5559-1.115-.8961-1.23-1.2277-2.8968-1.9172-4.6346-1.9172-1.7377 0-3.4046.6895-4.6345 1.9172-1.1763 1.1989-2.7681 1.9003-4.4467 1.9595-1.6785.0592-3.3157-.5284-4.5736-1.6415-1.2579-1.113-2.0404-2.6665-2.186-4.3398-.1455-1.6733.3569-3.3386 1.4037-4.6522.1641-.2052.342-.4035.5267-.5951.6085-.608 1.0912-1.3299 1.4206-2.1245.3293-.7947.4989-1.6464.4989-2.5066s-.1696-1.7119-.4989-2.5066c-.3294-.7946-.8121-1.5165-1.4206-2.1245-1.1223-1.1198-1.8011-2.6083-1.9108-4.19s.3571-3.1496 1.3141-4.4136c.9571-1.2641 2.3395-2.1388 3.8916-2.4624 1.5522-.3235 3.1689-.074 4.5513.7024.5227.2949 1.0035.6584 1.4297 1.0809.608.6085 1.3299 1.0912 2.1246 1.4206.7946.3293 1.6463.4988 2.5065.4988s1.7119-.1695 2.5066-.4988c.7946-.3294 1.5165-.8121 2.1245-1.4206.6091-.6091 1.3321-1.0923 2.1279-1.4219s1.6487-.4993 2.5101-.4993c.8613 0 1.7142.1697 2.51.4993s1.5189.8128 2.1279 1.4219c.6091.609 1.0922 1.3321 1.4218 2.1279.3296.7957.4993 1.6487.4993 2.51s-.1697 1.7143-.4993 2.51c-.3296.7959-.8127 1.5189-1.4218 2.128-1.2273 1.2287-1.9166 2.8944-1.9166 4.6311s.6893 3.4023 1.9166 4.6311z"/><path d="m31.6379 31.778c.6087-.6085 1.0916-1.3311 1.4211-2.1262.3294-.7952.4989-1.6476.4989-2.5083 0-.8608-.1695-1.7131-.4989-2.5083-.3295-.7952-.8124-1.5177-1.4211-2.1263-.6081-.6095-1.3305-1.0931-2.1257-1.423-.7953-.33-1.6478-.4998-2.5089-.4998-.8609 0-1.7135.1698-2.5088.4998-.7952.3299-1.5176.8135-2.1257 1.423-.6087.6086-1.0916 1.3311-1.421 2.1263-.3295.7952-.4991 1.6475-.4991 2.5083 0 .8607.1696 1.7131.4991 2.5083.3294.7951.8123 1.5177 1.421 2.1262.6085.6087 1.3311 1.0916 2.1263 1.421.7952.3295 1.6475.4991 2.5082.4991.8608 0 1.7131-.1696 2.5083-.4991.7952-.3294 1.5177-.8123 2.1263-1.421z"/></g></svg>